<svg id="pages" xmlns="http://www.w3.org/2000/svg" viewBox="0 0 24.81 30"><defs><style>.cls-1{fill:#3d58a6;}</style></defs><title>ico_youtube</title><path class="cls-1" d="M1159.47,58.94V55.4q0-1.13-.65-1.13a1.06,1.06,0,0,0-.74.36v5.05a1.06,1.06,0,0,0,.74.36q0.65,0,.65-1.11h0Zm4.15-2.75h1.49V55.42q0-1.15-.74-1.15t-0.74,1.15v0.77Zm-12.88-6v1.58h-1.8v9.54h-1.67V51.77h-1.76V50.19h5.23Zm4.53,2.84v8.28h-1.51v-0.9a2.4,2.4,0,0,1-1.71,1,0.89,0.89,0,0,1-.95-0.63,3.84,3.84,0,0,1-.14-1.22V53h1.49v6.09a3.41,3.41,0,0,0,0,.59,0.31,0.31,0,0,0,.34.34,1.32,1.32,0,0,0,.95-0.7V53h1.51Zm5.68,2.5v3.29a5.88,5.88,0,0,1-.16,1.65,1.16,1.16,0,0,1-1.2.95,2,2,0,0,1-1.53-.92v0.81h-1.51V50.19h1.51v3.63a2,2,0,0,1,1.53-.9,1.16,1.16,0,0,1,1.2.95A6,6,0,0,1,1161,55.54Zm5.66,2.91v0.2a7.53,7.53,0,0,1,0,1,2.12,2.12,0,0,1-.34.9,2,2,0,0,1-1.8.9,2.17,2.17,0,0,1-1.83-.86,3.17,3.17,0,0,1-.47-1.94V55.72a3.29,3.29,0,0,1,.45-1.94,2.14,2.14,0,0,1,1.8-.86,2,2,0,0,1,1.76.86,3.23,3.23,0,0,1,.47,1.94v1.71h-3V58.9q0,1.15.77,1.15a0.65,0.65,0,0,0,.68-0.59s0-.07,0-0.16,0-.21,0-0.37V58.45h1.53Zm-10.17-18.59v3.52q0,1.15-.72,1.15T1155,43.38V39.86q0-1.17.72-1.17T1156.44,39.86Zm12,16.08a28.85,28.85,0,0,0-.43-5.86,3.09,3.09,0,0,0-1-1.66,3,3,0,0,0-1.71-.78,127.49,127.49,0,0,0-18.56,0,3,3,0,0,0-1.73.78,3.12,3.12,0,0,0-1,1.66,28.23,28.23,0,0,0-.45,5.86,27.64,27.64,0,0,0,.45,5.86,3.17,3.17,0,0,0,1,1.65,3,3,0,0,0,1.7.79q3.09,0.34,9.29.34t9.29-.34a3,3,0,0,0,1.7-.79,3.17,3.17,0,0,0,1-1.65A27.64,27.64,0,0,0,1168.47,55.94Zm-17-14.68,2-6.68h-1.69l-1.15,4.4-1.2-4.4h-1.76l0.54,1.56,0.52,1.56a30.94,30.94,0,0,1,1,3.56v4.53h1.67V41.26h0Zm6.52,1.83V40.15a3.34,3.34,0,0,0-.47-2,2.1,2.1,0,0,0-1.76-.86,2,2,0,0,0-1.76.86,3.34,3.34,0,0,0-.47,2v2.93a3.34,3.34,0,0,0,.47,2,2,2,0,0,0,1.76.86,2.1,2.1,0,0,0,1.76-.86A3.22,3.22,0,0,0,1158,43.08Zm4.08,2.71h1.51V37.45H1162v6.38a1.32,1.32,0,0,1-.95.7,0.33,0.33,0,0,1-.36-0.36,3.41,3.41,0,0,1,0-.59V37.45h-1.51v6.61a4.21,4.21,0,0,0,.14,1.24,1,1,0,0,0,1,.61,2.52,2.52,0,0,0,1.74-1v0.9h0Z" transform="translate(-1143.65 -34.58)"/></svg>