<svg id="pages" xmlns="http://www.w3.org/2000/svg" viewBox="0 0 100.87 130.5"><defs><style>.cls-1{fill:#3d58a6;}</style></defs><title>ico_hand</title><path class="cls-1" d="M1648.22,1843a3.86,3.86,0,0,0,3,1.46h48.18a3.85,3.85,0,0,0,3.58-2.4c0.07-.18,1-2.63,1.36-3.61,1-2.79,2-5.83,2.94-9a120.71,120.71,0,0,0,3.44-14.81c1.63-10.2,1.18-18.36-2.23-24-3.55-5.82-9.88-10-18.14-13a78.36,78.36,0,0,0-13.41-3.42c-1.59-.27-2.58-0.38-2.58-0.38v-35a11.54,11.54,0,0,0-11.56-11.5h-1.93a11.55,11.55,0,0,0-11.56,11.51v60.64l-12.84-11.18c-8.24-7.18-19.71-5.27-25.14,4.18a3.87,3.87,0,0,0,.26,4.4Zm-27.57-49.67c3.15-2.4,7.29-2.21,10.75.8l19.22,16.75A3.86,3.86,0,0,0,1657,1808v-69.09a3.85,3.85,0,0,1,3.85-3.84h1.93a3.85,3.85,0,0,1,3.85,3.82v38.4a3.85,3.85,0,0,0,3.57,3.83c0.24,0,.73.06,1.44,0.14,1.2,0.14,2.54.32,4,.57a70.8,70.8,0,0,1,12.08,3.07c6.76,2.43,11.71,5.7,14.17,9.73,2.21,3.63,2.58,10.22,1.21,18.77a113.27,113.27,0,0,1-3.22,13.86c-0.89,3-1.85,5.93-2.8,8.59a7.68,7.68,0,0,0-.31.93h-43.62l-33.71-42.33A9.38,9.38,0,0,1,1620.65,1793.33Z" transform="translate(-1610.78 -1713.96)"/><path class="cls-1" d="M1687.34,1734.62a26,26,0,1,0-37.91,28,3.84,3.84,0,1,0,3.69-6.74,18.31,18.31,0,1,1,17.66-.1,3.84,3.84,0,1,0,3.76,6.7,25.9,25.9,0,0,0,13.22-20.2h11.32v3.85c0,1,.7,1.41,1.57.79l10.34-7.36a1.28,1.28,0,0,0,0-2.24l-10.34-7.36c-0.89-.63-1.57-0.26-1.57.79v3.85h-11.74Z" transform="translate(-1610.78 -1713.96)"/></svg>