<svg id="pages" xmlns="http://www.w3.org/2000/svg" viewBox="0 0 84.81 127.51"><defs><style>.cls-1{fill:#3d58a6;}</style></defs><title>ico_phone</title><path class="cls-1" d="M2318.43,1805.06a2,2,0,0,0-2.79.23l-13.69,16.07-8.75-6.93a2,2,0,1,0-2.46,3.08l10.25,8.12a2,2,0,0,0,2.74-.27l14.93-17.52A2,2,0,0,0,2318.43,1805.06Zm-13.87,33.19a2,2,0,0,0-2,2,5.93,5.93,0,0,1-5.93,5.91H2244.2a5.93,5.93,0,0,1-5.93-5.91V1732.39a5.93,5.93,0,0,1,5.93-5.91h52.45a5.93,5.93,0,0,1,5.93,5.91v60.25a2,2,0,0,0,4,0V1759a3.29,3.29,0,0,0,2.64-3.22v-8.61a3.29,3.29,0,0,0-2.64-3.22v-11.6a9.87,9.87,0,0,0-9.88-9.84H2244.2a9.87,9.87,0,0,0-9.88,9.84v107.83a9.87,9.87,0,0,0,9.88,9.84h52.45a9.89,9.89,0,0,0,9.8-8.57,1.94,1.94,0,0,0,.08-0.56v-0.71A2,2,0,0,0,2304.56,1838.25Zm-24.25-105.67a2,2,0,1,0,0-3.94h-19.77a2,2,0,1,0,0,3.94h19.77Zm-15.38,106.74a5.5,5.5,0,1,0,5.5-5.47A5.49,5.49,0,0,0,2264.93,1839.32Zm7,0a1.54,1.54,0,1,1-1.54-1.53A1.54,1.54,0,0,1,2272,1839.32Zm22.08-44.83a2.18,2.18,0,0,0,2.18-2.17v-44.07c0-3.67-3.54-6.88-7.57-6.88h-35.74a7.56,7.56,0,0,0-7.57,7.54v73.48a7.56,7.56,0,0,0,7.57,7.54h31.19a2.17,2.17,0,1,0,0-4.34h-31.19a3.2,3.2,0,0,1-3.21-3.19v-73.47a3.2,3.2,0,0,1,3.21-3.19h35.74a3.17,3.17,0,0,1,3.21,2.54v44.07A2.17,2.17,0,0,0,2294,1794.49Z" transform="translate(-2234.31 -1722.55)"/></svg>