<svg id="pages" xmlns="http://www.w3.org/2000/svg" viewBox="0 0 98.36 30"><defs><style>.cls-1{fill:#e6e6e6;}</style></defs><title>ico_logo_html‪_white</title><path class="cls-1" d="M2620.92,555.75a1.35,1.35,0,0,1-.51-0.21l-5.69-5.52-0.59-.57a2.11,2.11,0,0,1-.33-0.49,1.44,1.44,0,0,1-.16-0.66V547.5a1.42,1.42,0,0,1,.17-0.67,2.14,2.14,0,0,1,.31-0.47l0.62-.59,5.67-5.67a0.79,0.79,0,0,1,.49-0.16,0.62,0.62,0,0,1,.48.2,0.71,0.71,0,0,1,.19.49v0.91a1.73,1.73,0,0,1,0,.27c0,0.08,0,.15,0,0.21a0.68,0.68,0,0,1-.1.21,1.2,1.2,0,0,0-.1.17,0.79,0.79,0,0,1-.15.18l-0.15.15-0.2.18-0.2.18-4.38,4.53a0.33,0.33,0,0,0,0,.58l4.38,4.37,0.2,0.17,0.19,0.17,0.16,0.15,0.15,0.16,0.11,0.16a0.61,0.61,0,0,1,.09.19q0,0.09,0,.21a1.73,1.73,0,0,1,0,.27v1a0.68,0.68,0,0,1-.19.48A0.6,0.6,0,0,1,2620.92,555.75Z" transform="translate(-2613.64 -531.44)"/><path class="cls-1" d="M2626.44,561.42q-0.18,0-.18-0.42a0.37,0.37,0,0,1,0-.06,0.44,0.44,0,0,0,0-.08l4.58-28.85q0.1-.57.35-0.57h2.68q0.2,0,.2.41a0.48,0.48,0,0,1,0,.16l-4.6,28.87q-0.1.57-.31,0.57Z" transform="translate(-2613.64 -531.44)"/><path class="cls-1" d="M2638.43,558.1A0.49,0.49,0,0,1,2638,558a1.07,1.07,0,0,1-.12-0.62V535.58A1.07,1.07,0,0,1,2638,535a0.49,0.49,0,0,1,.39-0.14h2.84a0.49,0.49,0,0,1,.39.14,1.07,1.07,0,0,1,.12.62v8.61a0.49,0.49,0,0,0,.07.26,0.18,0.18,0,0,0,.13.11h5.87a0.21,0.21,0,0,0,.14-0.12,0.48,0.48,0,0,0,.08-0.27v-8.6a1,1,0,0,1,.13-0.62,0.48,0.48,0,0,1,.38-0.15h2.88a0.46,0.46,0,0,1,.37.14,1.07,1.07,0,0,1,.12.62v21.76a1.07,1.07,0,0,1-.12.62,0.46,0.46,0,0,1-.37.14h-2.88a0.74,0.74,0,0,1-.27,0,0.39,0.39,0,0,1-.18-0.22,1.28,1.28,0,0,1-.08-0.5v-9.89q0-.34-0.22-0.34H2642q-0.2,0-.2.34v9.89a1,1,0,0,1-.13.62,0.48,0.48,0,0,1-.38.15h-2.88Z" transform="translate(-2613.64 -531.44)"/><path class="cls-1" d="M2659.27,558.1a0.44,0.44,0,0,1-.36-0.15,1,1,0,0,1-.13-0.62V537.83q0-.4-0.22-0.4h-3.4a1.18,1.18,0,0,1-.28,0,0.28,0.28,0,0,1-.16-0.16,1,1,0,0,1-.07-0.43v-1.28a1,1,0,0,1,.12-0.57,0.49,0.49,0,0,1,.39-0.14h11.05a0.46,0.46,0,0,1,.37.14,1,1,0,0,1,.12.57v1.28a0.78,0.78,0,0,1-.11.51,0.54,0.54,0,0,1-.38.11h-3.35q-0.22,0-.22.4v19.49a1,1,0,0,1-.13.63,0.48,0.48,0,0,1-.38.15h-2.88Z" transform="translate(-2613.64 -531.44)"/><path class="cls-1" d="M2669.52,558.1q-0.47,0-.47-0.79v-0.08l0.88-21.48q0-.89.49-0.92h3.09a0.88,0.88,0,0,1,.49.16,1,1,0,0,1,.29.6l3.31,15.32a0.17,0.17,0,0,0,.07.1,0.08,0.08,0,0,0,.1,0,0.11,0.11,0,0,0,0-.1l3.33-15.27a0.86,0.86,0,0,1,.76-0.81H2685q0.47,0,.47.92l0.92,21.48v0.1q0,0.78-.49.78h-2.15q-0.47,0-.51-0.87l-0.61-16.63a0.1,0.1,0,0,0-.06-0.11,0.06,0.06,0,0,0-.08,0L2679,557.32a0.76,0.76,0,0,1-.67.78H2677a0.8,0.8,0,0,1-.67-0.78l-3.46-16.71q0-.1-0.08,0a0.19,0.19,0,0,0,0,.1l-0.63,16.55q0,0.87-.45.87h-2.21Z" transform="translate(-2613.64 -531.44)"/><path class="cls-1" d="M2691.08,558.1a0.46,0.46,0,0,1-.37-0.14,1.07,1.07,0,0,1-.12-0.62V535.58a1.07,1.07,0,0,1,.12-0.62,0.46,0.46,0,0,1,.37-0.14H2694a0.46,0.46,0,0,1,.37.14,1.07,1.07,0,0,1,.12.62v19.59q0,0.36.27,0.36h5.09a0.52,0.52,0,0,1,.37.11,0.77,0.77,0,0,1,.12.52v1.3a0.8,0.8,0,0,1-.12.53,0.5,0.5,0,0,1-.37.12h-8.72Z" transform="translate(-2613.64 -531.44)"/><path class="cls-1" d="M2704.73,555.75a0.59,0.59,0,0,1-.47-0.2,0.75,0.75,0,0,1-.18-0.51v-0.89q0-.11,0-0.22a1.26,1.26,0,0,1,0-.19,1,1,0,0,1,.06-0.17l0.07-.15,0.1-.15,0.1-.13,0.12-.14,0.13-.13,0.16-.14,0.16-.15,4.4-4.52a0.42,0.42,0,0,0,.16-0.31,0.33,0.33,0,0,0-.18-0.28l-4.36-4.37-0.23-.2-0.22-.19-0.17-.17a0.63,0.63,0,0,1-.15-0.19l-0.09-.19a0.87,0.87,0,0,1-.08-0.25,2,2,0,0,1,0-.29v-1a0.67,0.67,0,0,1,.18-0.48,0.62,0.62,0,0,1,.47-0.19,1,1,0,0,1,.49.19l5.69,5.54,0.61,0.58a2.18,2.18,0,0,1,.32.47,1.38,1.38,0,0,1,.17.66v0.79q0,0.13,0,.23a0.73,0.73,0,0,1-.06.22,1.4,1.4,0,0,0-.07.19,0.53,0.53,0,0,1-.12.19,0.74,0.74,0,0,0-.12.16,0.84,0.84,0,0,1-.16.19l-0.17.17-0.21.19-0.22.19-5.65,5.67A1,1,0,0,1,2704.73,555.75Z" transform="translate(-2613.64 -531.44)"/></svg>