<svg id="pages" xmlns="http://www.w3.org/2000/svg" viewBox="0 0 14 30"><defs><style>.cls-1{fill:#3d58a6;}</style></defs><title>ico_fb</title><g id="_020201ff" data-name="#020201ff"><path class="cls-1" d="M1068.48,36.13a6.58,6.58,0,0,1,4.4-1.54c1.66,0,3.32,0,5,0q0,2.63,0,5.25h-3.22a1.48,1.48,0,0,0-1.5,1.15c0,1.17,0,2.34,0,3.52h4.72c-0.12,1.7-.33,3.38-0.57,5.06-1.39,0-2.78,0-4.17,0,0,5,0,10,0,15h-6.19c0-5,0-10,0-15-1,0-2,0-3,0,0-1.68,0-3.36,0-5h3c0-1.63,0-3.27,0-4.9A5.28,5.28,0,0,1,1068.48,36.13Z" transform="translate(-1063.86 -34.58)"/></g></svg>