<svg id="pages" xmlns="http://www.w3.org/2000/svg" viewBox="0 0 196.73 60"><defs><style>.cls-1{fill:#ee4036;}</style></defs><title>ico_logo_html</title><path class="cls-1" d="M112.43,69.82a2.71,2.71,0,0,1-1-.42L100,58.36q-0.82-.78-1.17-1.15a4.22,4.22,0,0,1-.67-1,2.88,2.88,0,0,1-.31-1.33V53.31A2.84,2.84,0,0,1,98.2,52,4.29,4.29,0,0,1,98.83,51q0.29-.31,1.23-1.18l11.35-11.33a1.58,1.58,0,0,1,1-.32,1.25,1.25,0,0,1,1,.4,1.41,1.41,0,0,1,.37,1V41.4a3.47,3.47,0,0,1,0,.53c0,0.16-.05.3-0.08,0.42a1.36,1.36,0,0,1-.19.42,2.4,2.4,0,0,0-.2.34,1.59,1.59,0,0,1-.29.36l-0.29.29-0.39.36-0.39.36-8.76,9.07a0.66,0.66,0,0,0,0,1.17l8.76,8.74,0.39,0.34,0.37,0.34,0.31,0.31a2.7,2.7,0,0,1,.29.32l0.22,0.32a1.22,1.22,0,0,1,.18.39q0,0.18.08,0.42a3.46,3.46,0,0,1,0,.53v2a1.37,1.37,0,0,1-.37,1A1.2,1.2,0,0,1,112.43,69.82Z" transform="translate(-97.87 -21.19)"/><path class="cls-1" d="M123.47,81.16q-0.35,0-.35-0.84a0.74,0.74,0,0,1,0-.13,0.88,0.88,0,0,0,0-.16l9.15-57.7q0.2-1.13.7-1.13h5.36q0.39,0,.39.81a1,1,0,0,1,0,.32l-9.19,57.73q-0.2,1.13-.63,1.13Z" transform="translate(-97.87 -21.19)"/><path class="cls-1" d="M147.45,74.52a1,1,0,0,1-.78-0.28,2.14,2.14,0,0,1-.24-1.25V29.48a2.14,2.14,0,0,1,.24-1.25,1,1,0,0,1,.78-0.28h5.67a1,1,0,0,1,.78.28,2.14,2.14,0,0,1,.24,1.25V46.71a1,1,0,0,0,.14.52,0.37,0.37,0,0,0,.25.23h11.74a0.43,0.43,0,0,0,.27-0.24,1,1,0,0,0,.16-0.53V29.48a2,2,0,0,1,.25-1.23,1,1,0,0,1,.76-0.29h5.75a0.93,0.93,0,0,1,.74.28,2.15,2.15,0,0,1,.24,1.25V73a2.15,2.15,0,0,1-.24,1.25,0.92,0.92,0,0,1-.74.28h-5.75a1.48,1.48,0,0,1-.55-0.08,0.78,0.78,0,0,1-.35-0.44,2.57,2.57,0,0,1-.16-1V53.21q0-.68-0.43-0.68H154.61q-0.39,0-.39.68V73a2,2,0,0,1-.25,1.23,1,1,0,0,1-.76.29h-5.75Z" transform="translate(-97.87 -21.19)"/><path class="cls-1" d="M189.12,74.52a0.88,0.88,0,0,1-.72-0.31,2.09,2.09,0,0,1-.25-1.25V34q0-.81-0.43-0.81H180.9a2.37,2.37,0,0,1-.57,0A0.56,0.56,0,0,1,180,32.8a2,2,0,0,1-.14-0.86V29.38a1.91,1.91,0,0,1,.24-1.15A1,1,0,0,1,180.9,28H203a0.93,0.93,0,0,1,.74.28,1.91,1.91,0,0,1,.24,1.15v2.56a1.57,1.57,0,0,1-.22,1,1.09,1.09,0,0,1-.76.21h-6.69q-0.43,0-.43.81V73a2.09,2.09,0,0,1-.25,1.26,1,1,0,0,1-.76.29h-5.75Z" transform="translate(-97.87 -21.19)"/><path class="cls-1" d="M209.62,74.52q-0.94,0-.94-1.59V72.77l1.76-43q0-1.78,1-1.85h6.18a1.77,1.77,0,0,1,1,.32,2,2,0,0,1,.59,1.2l6.61,30.63a0.33,0.33,0,0,0,.14.19,0.16,0.16,0,0,0,.2,0,0.22,0.22,0,0,0,.1-0.19l6.65-30.53A1.71,1.71,0,0,1,234.38,28h6.26q0.94,0.07.94,1.85l1.84,43V73q0,1.55-1,1.55h-4.3q-0.94,0-1-1.75l-1.21-33.25a0.2,0.2,0,0,0-.12-0.23,0.12,0.12,0,0,0-.16.1L228.52,73q-0.31,1.55-1.33,1.55h-2.54q-0.94,0-1.33-1.55l-6.93-33.42q0-.19-0.16-0.06a0.39,0.39,0,0,0,0,.19l-1.25,33.09q0,1.75-.9,1.75h-4.42Z" transform="translate(-97.87 -21.19)"/><path class="cls-1" d="M252.73,74.52a0.92,0.92,0,0,1-.74-0.28,2.14,2.14,0,0,1-.24-1.25V29.48a2.14,2.14,0,0,1,.24-1.25,0.93,0.93,0,0,1,.74-0.28h5.75a0.93,0.93,0,0,1,.74.28,2.14,2.14,0,0,1,.24,1.25V68.66q0,0.71.55,0.71h10.17a1,1,0,0,1,.74.23,1.54,1.54,0,0,1,.23,1v2.59a1.61,1.61,0,0,1-.23,1.05,1,1,0,0,1-.74.24H252.73Z" transform="translate(-97.87 -21.19)"/><path class="cls-1" d="M280,69.82a1.18,1.18,0,0,1-.94-0.4,1.5,1.5,0,0,1-.35-1V66.62q0-.23,0-0.44a2.51,2.51,0,0,1,.06-0.37,2,2,0,0,1,.12-0.34l0.14-.29a2.16,2.16,0,0,1,.2-0.29l0.2-.26,0.24-.28a3,3,0,0,1,.25-0.26l0.31-.28a3.19,3.19,0,0,0,.31-0.31l8.8-9a0.84,0.84,0,0,0,.31-0.62,0.65,0.65,0,0,0-.35-0.55l-8.72-8.74a5.17,5.17,0,0,0-.45-0.4,4.1,4.1,0,0,1-.43-0.39l-0.33-.34a1.25,1.25,0,0,1-.29-0.37c0-.1-0.1-0.23-0.18-0.39a1.73,1.73,0,0,1-.16-0.5,3.92,3.92,0,0,1,0-.58V39.52a1.33,1.33,0,0,1,.35-1,1.23,1.23,0,0,1,.94-0.37,1.91,1.91,0,0,1,1,.39l11.39,11.07q0.9,0.84,1.21,1.17a4.37,4.37,0,0,1,.65.94,2.75,2.75,0,0,1,.33,1.33v1.59q0,0.26,0,.47a1.46,1.46,0,0,1-.12.44,2.79,2.79,0,0,0-.14.37,1.07,1.07,0,0,1-.23.37,1.49,1.49,0,0,0-.24.32,1.68,1.68,0,0,1-.31.37l-0.33.34-0.41.39-0.43.39L281.06,69.47A1.89,1.89,0,0,1,280,69.82Z" transform="translate(-97.87 -21.19)"/></svg>